{
	"asset":{
		"version":"2.0",
		"generator":"Houdini GLTF 2.0 Exporter"
	},
	"accessors":[
		{
			"bufferView":0,
			"componentType":5125,
			"count":47232,
			"type":"SCALAR",
			"min":[0
			],
			"max":[9907
			]
		},
		{
			"bufferView":1,
			"componentType":5126,
			"count":9908,
			"type":"VEC3",
			"min":[-1.33068395,-0.973083019,-0.783890009
			],
			"max":[1.33068395,0.941955984,0.822896004
			]
		},
		{
			"bufferView":2,
			"componentType":5126,
			"count":9908,
			"type":"VEC3",
			"min":[-0.999923944,-0.999643505,-0.999995828
			],
			"max":[0.999923944,0.999972701,0.999999285
			]
		},
		{
			"bufferView":3,
			"componentType":5126,
			"count":9908,
			"type":"VEC2",
			"min":[0,0
			],
			"max":[1,1
			]
		}
	],
	"buffers":[
		{
			"uri":"suzanne_data.bin",
			"byteLength":505984,
			"name":"main_buffer"
		}
	],
	"bufferViews":[
		{
			"buffer":0,
			"byteLength":188928,
			"target":34963
		},
		{
			"buffer":0,
			"byteOffset":188928,
			"byteLength":118896,
			"target":34962
		},
		{
			"buffer":0,
			"byteOffset":307824,
			"byteLength":118896,
			"target":34962
		},
		{
			"buffer":0,
			"byteOffset":426720,
			"byteLength":79264,
			"target":34962
		}
	],
	"cameras":[
		{
			"name":"cam1",
			"type":"perspective",
			"perspective":{
				"aspectRatio":1,
				"yfov":0.457822323,
				"zfar":7114.60693,
				"znear":0.0389233604
			}
		}
	],
	"nodes":[
		{
			"children":[1,2,3
			],
			"name":"Root"
		},
		{
			"name":"suzanne",
			"mesh":0
		},
		{
			"matrix":[-0.992584407,0,0.121557519,0,0,1,0,0,-0.121557519,0,-0.992584407,0,0,0,0,1
			],
			"name":"envlight1"
		},
		{
			"matrix":[0.81273216,-2.04400507e-07,-0.582637489,0,-0.126790956,0.976034522,-0.176863477,0,0.568674326,0.217615798,0.793254614,0,3.06980681,1.07853186,4.46116686,1
			],
			"name":"cam1",
			"camera":0
		}
	],
	"meshes":[
		{
			"primitives":[
				{
					"attributes":{
						"TEXCOORD_0":3,
						"NORMAL":2,
						"POSITION":1
					},
					"indices":0,
					"material":0
				}
			],
			"name":"import_obj"
		}
	],
	"materials":[
		{
			"name":"suzanne_gold",
			"pbrMetallicRoughness":{
				"baseColorTexture":{
					"index":0
				},
				"metallicRoughnessTexture":{
					"index":1
				}
			},
			"normalTexture":{
				"index":2
			},
			"occlusionTexture":{
				"index":3
			}
		}
	],
	"scenes":[
		{
			"nodes":[0
			]
		}
	],
	"textures":[
		{
			"source":0
		},
		{
			"source":1
		},
		{
			"source":2
		},
		{
			"source":3
		}
	],
	"images":[
		{
			"uri":"albedo.png",
			"mimeType":"image/png"
		},
		{
			"uri":"roughness.png",
			"mimeType":"image/png"
		},
		{
			"uri":"normal.png",
			"mimeType":"image/png"
		},
		{
			"uri":"ao.png",
			"mimeType":"image/png"
		}
	],
	"scene":0
}
